<svg width="65" height="64" viewBox="0 0 65 64" fill="none" xmlns="http://www.w3.org/2000/svg">
<rect x="0.5" width="64" height="64" rx="32" fill="#C7B9FF" fill-opacity="0.3"/>
<path fill-rule="evenodd" clip-rule="evenodd" d="M32 18.3333C35.6819 18.3333 38.6667 21.3181 38.6667 25V33L26.6664 20.9997C27.8827 19.3806 29.819 18.3333 32 18.3333ZM25.3333 26.4142V34.3333C25.3333 38.0152 28.3181 41 32 41C34.1602 41 36.0805 39.9725 37.2987 38.3796L39.433 40.5139C37.6585 42.6456 34.9875 44 32 44C26.6612 44 22.3333 39.6721 22.3333 34.3333V31.6666C22.3333 31.1144 21.8856 30.6666 21.3333 30.6666C20.781 30.6666 20.3333 31.1144 20.3333 31.6666V34.3333C20.3333 40.7766 25.5567 46 32 46C35.5411 46 38.7138 44.4214 40.8521 41.933L43.2929 44.3738C43.6834 44.7643 44.3166 44.7643 44.7071 44.3738C45.0976 43.9832 45.0976 43.3501 44.7071 42.9595L20.7071 18.9595C20.3166 18.569 19.6834 18.569 19.2929 18.9595C18.9024 19.3501 18.9024 19.9832 19.2929 20.3738L25.3333 26.4142ZM42.6667 30.6666C43.219 30.6666 43.6667 31.1144 43.6667 31.6666V34.3333C43.6667 35.2331 43.5646 36.1103 43.3711 36.9535C43.2475 37.4917 42.7109 37.8279 42.1727 37.7044C41.6344 37.5808 41.2982 37.0443 41.4218 36.506C41.5819 35.8085 41.6667 35.0815 41.6667 34.3333V31.6666C41.6667 31.1144 42.1144 30.6666 42.6667 30.6666Z" fill="#F5F5F5"/>
</svg>
