<svg width="65" height="64" viewBox="0 0 65 64" fill="none" xmlns="http://www.w3.org/2000/svg">
<rect x="0.5" width="64" height="64" rx="32" fill="white"/>
<path d="M42.667 31C43.2191 31.0002 43.667 31.4478 43.667 32V34.667C43.6668 41.1102 38.4432 46.333 32 46.333C25.5568 46.333 20.3332 41.1102 20.333 34.667V32C20.333 31.4478 20.7809 31.0002 21.333 31C21.8853 31 22.333 31.4477 22.333 32V34.667C22.3332 40.0056 26.6614 44.333 32 44.333C37.3386 44.333 41.6668 40.0056 41.667 34.667V32C41.667 31.4477 42.1147 31 42.667 31ZM32 18.667C35.6818 18.667 38.6668 21.6513 38.667 25.333V25.667H33.333C32.7809 25.6672 32.333 26.1148 32.333 26.667C32.3332 27.219 32.781 27.6668 33.333 27.667H38.667V32.333H33.333C32.781 32.3332 32.3332 32.781 32.333 33.333C32.333 33.8852 32.7809 34.3328 33.333 34.333H38.667V34.667C38.6668 38.3487 35.6818 41.333 32 41.333C28.3182 41.333 25.3332 38.3487 25.333 34.667V25.333C25.3332 21.6513 28.3182 18.667 32 18.667Z" fill="#6244D6"/>
</svg>
