<svg width="49" height="48" viewBox="0 0 49 48" fill="none" xmlns="http://www.w3.org/2000/svg">
<rect x="0.25" width="48" height="48" rx="24" fill="#C0C0C0" fill-opacity="0.1"/>
<path d="M21.3793 15.67C23.6147 15.0507 25.9978 15.2508 28.0987 16.234C30.1995 17.2173 31.8797 18.919 32.8363 21.0321C33.7928 23.1452 33.9626 25.5306 33.3151 27.758C32.6675 29.9853 31.2453 31.9078 29.3049 33.1788C27.3645 34.4497 25.0338 34.9853 22.7333 34.689C20.4327 34.3927 18.3139 33.2839 16.759 31.5627C15.204 29.8415 14.3154 27.6213 14.2535 25.3026C14.1915 22.9839 14.9602 20.7194 16.421 18.9176" stroke="#F5F5F5" stroke-width="1.5" stroke-miterlimit="10" stroke-linecap="round"/>
<path d="M23.5119 17.6314L21.0465 16.7068C20.4442 16.481 20.2498 15.7251 20.6684 15.2367L22.5856 13" stroke="#F5F5F5" stroke-width="1.5" stroke-linecap="round"/>
</svg>
